<?xml version="1.0" encoding="UTF-8" standalone="no"?>
<!DOCTYPE svg PUBLIC "-//W3C//DTD SVG 1.1//EN"
 "http://www.w3.org/Graphics/SVG/1.1/DTD/svg11.dtd">
<!-- Generated by graphviz version 2.40.1 (20161225.0304)
 -->
<!-- Title: dependencies Pages: 1 -->
<svg width="1051pt" height="284pt"
 viewBox="0.00 0.00 1051.00 284.00" xmlns="http://www.w3.org/2000/svg" xmlns:xlink="http://www.w3.org/1999/xlink">
<g id="graph0" class="graph" transform="scale(1 1) rotate(0) translate(4 280)">
<title>dependencies</title>
<polygon fill="#ffffff" stroke="transparent" points="-4,4 -4,-280 1047,-280 1047,4 -4,4"/>
<text text-anchor="start" x="500.5091" y="-42.4" font-family="sans-serif" font-weight="bold" font-size="14.00" fill="#000000">Legend</text>
<polygon fill="#ffffb3" stroke="transparent" points="287.5,-10 287.5,-30 307.5,-30 307.5,-10 287.5,-10"/>
<text text-anchor="start" x="311.129" y="-15.4" font-family="sans-serif" font-size="14.00" fill="#000000"> &#160;Declarations</text>
<polygon fill="#8dd3c7" stroke="transparent" points="400.5,-10 400.5,-30 420.5,-30 420.5,-10 400.5,-10"/>
<text text-anchor="start" x="424.2251" y="-15.4" font-family="sans-serif" font-size="14.00" fill="#000000"> &#160;Module</text>
<polygon fill="#80b1d3" stroke="transparent" points="486.5,-10 486.5,-30 506.5,-30 506.5,-10 486.5,-10"/>
<text text-anchor="start" x="510.2812" y="-15.4" font-family="sans-serif" font-size="14.00" fill="#000000"> &#160;Bootstrap</text>
<polygon fill="#fdb462" stroke="transparent" points="583.5,-10 583.5,-30 603.5,-30 603.5,-10 583.5,-10"/>
<text text-anchor="start" x="607.1732" y="-15.4" font-family="sans-serif" font-size="14.00" fill="#000000"> &#160;Providers</text>
<polygon fill="#fb8072" stroke="transparent" points="679.5,-10 679.5,-30 699.5,-30 699.5,-10 679.5,-10"/>
<text text-anchor="start" x="703.2258" y="-15.4" font-family="sans-serif" font-size="14.00" fill="#000000"> &#160;Exports</text>
<g id="clust1" class="cluster">
<title>cluster_SharedModule</title>
<polygon fill="none" stroke="#000000" stroke-dasharray="1,5" points="8,-70 8,-268 1035,-268 1035,-70 8,-70"/>
</g>
<g id="clust2" class="cluster">
<title>cluster_SharedModule_declarations</title>
<polygon fill="none" stroke="#000000" points="16,-78 16,-130 1027,-130 1027,-78 16,-78"/>
</g>
<g id="clust9" class="cluster">
<title>cluster_SharedModule_exports</title>
<polygon fill="none" stroke="#000000" points="229,-208 229,-260 863,-260 863,-208 229,-208"/>
</g>
<!-- CustomMessageValidationComponent -->
<g id="node1" class="node">
<title>CustomMessageValidationComponent</title>
<polygon fill="#ffffb3" stroke="#000000" points="1019.4706,-122 786.5294,-122 786.5294,-86 1019.4706,-86 1019.4706,-122"/>
<text text-anchor="middle" x="903" y="-99.8" font-family="Times,serif" font-size="14.00" fill="#000000">CustomMessageValidationComponent</text>
</g>
<!-- SharedModule -->
<g id="node6" class="node">
<title>SharedModule</title>
<polygon fill="#8dd3c7" stroke="#000000" points="577.4231,-187 574.4231,-191 553.4231,-191 550.4231,-187 478.5769,-187 478.5769,-151 577.4231,-151 577.4231,-187"/>
<text text-anchor="middle" x="528" y="-164.8" font-family="Times,serif" font-size="14.00" fill="#000000">SharedModule</text>
</g>
<!-- CustomMessageValidationComponent&#45;&gt;SharedModule -->
<g id="edge1" class="edge">
<title>CustomMessageValidationComponent&#45;&gt;SharedModule</title>
<path fill="none" stroke="#000000" d="M820.875,-122.1061C820.875,-141.3391 820.875,-169 820.875,-169 820.875,-169 587.3511,-169 587.3511,-169"/>
<polygon fill="#000000" stroke="#000000" points="587.3511,-165.5001 577.3511,-169 587.351,-172.5001 587.3511,-165.5001"/>
</g>
<!-- NoContentComponent -->
<g id="node2" class="node">
<title>NoContentComponent</title>
<polygon fill="#ffffb3" stroke="#000000" points="768.2716,-122 625.7284,-122 625.7284,-86 768.2716,-86 768.2716,-122"/>
<text text-anchor="middle" x="697" y="-99.8" font-family="Times,serif" font-size="14.00" fill="#000000">NoContentComponent</text>
</g>
<!-- NoContentComponent&#45;&gt;SharedModule -->
<g id="edge2" class="edge">
<title>NoContentComponent&#45;&gt;SharedModule</title>
<path fill="none" stroke="#000000" d="M720.7952,-122.027C720.7952,-138.3976 720.7952,-160 720.7952,-160 720.7952,-160 587.3992,-160 587.3992,-160"/>
<polygon fill="#000000" stroke="#000000" points="587.3992,-156.5001 577.3992,-160 587.3992,-163.5001 587.3992,-156.5001"/>
</g>
<!-- SharedLoaderComponent -->
<g id="node3" class="node">
<title>SharedLoaderComponent</title>
<polygon fill="#ffffb3" stroke="#000000" points="607.8473,-122 448.1527,-122 448.1527,-86 607.8473,-86 607.8473,-122"/>
<text text-anchor="middle" x="528" y="-99.8" font-family="Times,serif" font-size="14.00" fill="#000000">SharedLoaderComponent</text>
</g>
<!-- SharedLoaderComponent&#45;&gt;SharedModule -->
<g id="edge3" class="edge">
<title>SharedLoaderComponent&#45;&gt;SharedModule</title>
<path fill="none" stroke="#000000" d="M528,-122.1061C528,-122.1061 528,-140.991 528,-140.991"/>
<polygon fill="#000000" stroke="#000000" points="524.5001,-140.9909 528,-150.991 531.5001,-140.991 524.5001,-140.9909"/>
</g>
<!-- SharedLoaderTableComponent -->
<g id="node4" class="node">
<title>SharedLoaderTableComponent</title>
<polygon fill="#ffffb3" stroke="#000000" points="429.7198,-122 238.2802,-122 238.2802,-86 429.7198,-86 429.7198,-122"/>
<text text-anchor="middle" x="334" y="-99.8" font-family="Times,serif" font-size="14.00" fill="#000000">SharedLoaderTableComponent</text>
</g>
<!-- SharedLoaderTableComponent&#45;&gt;SharedModule -->
<g id="edge4" class="edge">
<title>SharedLoaderTableComponent&#45;&gt;SharedModule</title>
<path fill="none" stroke="#000000" d="M334,-122.027C334,-138.3976 334,-160 334,-160 334,-160 468.5436,-160 468.5436,-160"/>
<polygon fill="#000000" stroke="#000000" points="468.5437,-163.5001 478.5436,-160 468.5436,-156.5001 468.5437,-163.5001"/>
</g>
<!-- SharedTableGenericComponent -->
<g id="node5" class="node">
<title>SharedTableGenericComponent</title>
<polygon fill="#ffffb3" stroke="#000000" points="220.3792,-122 23.6208,-122 23.6208,-86 220.3792,-86 220.3792,-122"/>
<text text-anchor="middle" x="122" y="-99.8" font-family="Times,serif" font-size="14.00" fill="#000000">SharedTableGenericComponent</text>
</g>
<!-- SharedTableGenericComponent&#45;&gt;SharedModule -->
<g id="edge5" class="edge">
<title>SharedTableGenericComponent&#45;&gt;SharedModule</title>
<path fill="none" stroke="#000000" d="M122,-122.1061C122,-141.3391 122,-169 122,-169 122,-169 468.6223,-169 468.6223,-169"/>
<polygon fill="#000000" stroke="#000000" points="468.6224,-172.5001 478.6223,-169 468.6223,-165.5001 468.6224,-172.5001"/>
</g>
<!-- CustomMessageValidationComponent  -->
<g id="node7" class="node">
<title>CustomMessageValidationComponent </title>
<polygon fill="#fb8072" stroke="#000000" points="855.4711,-252 618.5289,-252 618.5289,-216 855.4711,-216 855.4711,-252"/>
<text text-anchor="middle" x="737" y="-229.8" font-family="Times,serif" font-size="14.00" fill="#000000">CustomMessageValidationComponent </text>
</g>
<!-- SharedModule&#45;&gt;CustomMessageValidationComponent  -->
<g id="edge6" class="edge">
<title>SharedModule&#45;&gt;CustomMessageValidationComponent </title>
<path fill="none" stroke="#000000" stroke-dasharray="5,2" d="M577.5651,-178C619.6298,-178 673.2048,-178 673.2048,-178 673.2048,-178 673.2048,-205.973 673.2048,-205.973"/>
<polygon fill="#000000" stroke="#000000" points="669.7049,-205.973 673.2048,-215.973 676.7049,-205.973 669.7049,-205.973"/>
</g>
<!-- NoContentComponent  -->
<g id="node8" class="node">
<title>NoContentComponent </title>
<polygon fill="#fb8072" stroke="#000000" points="601.2717,-252 454.7283,-252 454.7283,-216 601.2717,-216 601.2717,-252"/>
<text text-anchor="middle" x="528" y="-229.8" font-family="Times,serif" font-size="14.00" fill="#000000">NoContentComponent </text>
</g>
<!-- SharedModule&#45;&gt;NoContentComponent  -->
<g id="edge7" class="edge">
<title>SharedModule&#45;&gt;NoContentComponent </title>
<path fill="none" stroke="#000000" stroke-dasharray="5,2" d="M528,-187.1061C528,-187.1061 528,-205.991 528,-205.991"/>
<polygon fill="#000000" stroke="#000000" points="524.5001,-205.9909 528,-215.991 531.5001,-205.991 524.5001,-205.9909"/>
</g>
<!-- SharedTableGenericComponent  -->
<g id="node9" class="node">
<title>SharedTableGenericComponent </title>
<polygon fill="#fb8072" stroke="#000000" points="436.8788,-252 237.1212,-252 237.1212,-216 436.8788,-216 436.8788,-252"/>
<text text-anchor="middle" x="337" y="-229.8" font-family="Times,serif" font-size="14.00" fill="#000000">SharedTableGenericComponent </text>
</g>
<!-- SharedModule&#45;&gt;SharedTableGenericComponent  -->
<g id="edge8" class="edge">
<title>SharedModule&#45;&gt;SharedTableGenericComponent </title>
<path fill="none" stroke="#000000" stroke-dasharray="5,2" d="M478.7602,-178C455.774,-178 433.3996,-178 433.3996,-178 433.3996,-178 433.3996,-205.973 433.3996,-205.973"/>
<polygon fill="#000000" stroke="#000000" points="429.8997,-205.973 433.3996,-215.973 436.8997,-205.973 429.8997,-205.973"/>
</g>
</g>
</svg>
