<?xml version="1.0" encoding="UTF-8" standalone="no"?>
<!DOCTYPE svg PUBLIC "-//W3C//DTD SVG 1.1//EN"
 "http://www.w3.org/Graphics/SVG/1.1/DTD/svg11.dtd">
<!-- Generated by graphviz version 2.40.1 (20161225.0304)
 -->
<!-- Title: dependencies Pages: 1 -->
<svg width="1563pt" height="211pt"
 viewBox="0.00 0.00 1563.00 211.00" xmlns="http://www.w3.org/2000/svg" xmlns:xlink="http://www.w3.org/1999/xlink">
<g id="graph0" class="graph" transform="scale(1 1) rotate(0) translate(4 207)">
<title>dependencies</title>
<polygon fill="#ffffff" stroke="transparent" points="-4,4 -4,-207 1559,-207 1559,4 -4,4"/>
<text text-anchor="start" x="756.5091" y="-42.4" font-family="sans-serif" font-weight="bold" font-size="14.00" fill="#000000">Legend</text>
<polygon fill="#ffffb3" stroke="transparent" points="543.5,-10 543.5,-30 563.5,-30 563.5,-10 543.5,-10"/>
<text text-anchor="start" x="567.129" y="-15.4" font-family="sans-serif" font-size="14.00" fill="#000000"> &#160;Declarations</text>
<polygon fill="#8dd3c7" stroke="transparent" points="656.5,-10 656.5,-30 676.5,-30 676.5,-10 656.5,-10"/>
<text text-anchor="start" x="680.2251" y="-15.4" font-family="sans-serif" font-size="14.00" fill="#000000"> &#160;Module</text>
<polygon fill="#80b1d3" stroke="transparent" points="742.5,-10 742.5,-30 762.5,-30 762.5,-10 742.5,-10"/>
<text text-anchor="start" x="766.2812" y="-15.4" font-family="sans-serif" font-size="14.00" fill="#000000"> &#160;Bootstrap</text>
<polygon fill="#fdb462" stroke="transparent" points="839.5,-10 839.5,-30 859.5,-30 859.5,-10 839.5,-10"/>
<text text-anchor="start" x="863.1732" y="-15.4" font-family="sans-serif" font-size="14.00" fill="#000000"> &#160;Providers</text>
<polygon fill="#fb8072" stroke="transparent" points="935.5,-10 935.5,-30 955.5,-30 955.5,-10 935.5,-10"/>
<text text-anchor="start" x="959.2258" y="-15.4" font-family="sans-serif" font-size="14.00" fill="#000000"> &#160;Exports</text>
<g id="clust1" class="cluster">
<title>cluster_CoreModule</title>
<polygon fill="none" stroke="#000000" stroke-dasharray="1,5" points="8,-70 8,-195 1547,-195 1547,-70 8,-70"/>
</g>
<g id="clust6" class="cluster">
<title>cluster_CoreModule_providers</title>
<polygon fill="none" stroke="#000000" points="16,-78 16,-130 1539,-130 1539,-78 16,-78"/>
</g>
<!-- DownloadService -->
<g id="node1" class="node">
<title>DownloadService</title>
<ellipse fill="#fdb462" stroke="#000000" cx="1451" cy="-104" rx="80.4383" ry="18"/>
<text text-anchor="middle" x="1451" y="-99.8" font-family="Times,serif" font-size="14.00" fill="#000000">DownloadService</text>
</g>
<!-- CoreModule -->
<g id="node9" class="node">
<title>CoreModule</title>
<polygon fill="#8dd3c7" stroke="#000000" points="828.2619,-187 825.2619,-191 804.2619,-191 801.2619,-187 741.7381,-187 741.7381,-151 828.2619,-151 828.2619,-187"/>
<text text-anchor="middle" x="785" y="-164.8" font-family="Times,serif" font-size="14.00" fill="#000000">CoreModule</text>
</g>
<!-- DownloadService&#45;&gt;CoreModule -->
<g id="edge1" class="edge">
<title>DownloadService&#45;&gt;CoreModule</title>
<path fill="none" stroke="#000000" d="M1451,-122.2921C1451,-144.2057 1451,-178 1451,-178 1451,-178 838.4412,-178 838.4412,-178"/>
<polygon fill="#000000" stroke="#000000" points="838.4412,-174.5001 828.4412,-178 838.4412,-181.5001 838.4412,-174.5001"/>
</g>
<!-- HttpInterceptorService -->
<g id="node2" class="node">
<title>HttpInterceptorService</title>
<ellipse fill="#fdb462" stroke="#000000" cx="1253" cy="-104" rx="99.5327" ry="18"/>
<text text-anchor="middle" x="1253" y="-99.8" font-family="Times,serif" font-size="14.00" fill="#000000">HttpInterceptorService</text>
</g>
<!-- HttpInterceptorService&#45;&gt;CoreModule -->
<g id="edge2" class="edge">
<title>HttpInterceptorService&#45;&gt;CoreModule</title>
<path fill="none" stroke="#000000" d="M1253,-122.1061C1253,-141.3391 1253,-169 1253,-169 1253,-169 838.608,-169 838.608,-169"/>
<polygon fill="#000000" stroke="#000000" points="838.6081,-165.5001 828.608,-169 838.608,-172.5001 838.6081,-165.5001"/>
</g>
<!-- IsOnlineService -->
<g id="node3" class="node">
<title>IsOnlineService</title>
<ellipse fill="#fdb462" stroke="#000000" cx="1062" cy="-104" rx="73.49" ry="18"/>
<text text-anchor="middle" x="1062" y="-99.8" font-family="Times,serif" font-size="14.00" fill="#000000">IsOnlineService</text>
</g>
<!-- IsOnlineService&#45;&gt;CoreModule -->
<g id="edge3" class="edge">
<title>IsOnlineService&#45;&gt;CoreModule</title>
<path fill="none" stroke="#000000" d="M1062,-122.027C1062,-138.3976 1062,-160 1062,-160 1062,-160 838.2813,-160 838.2813,-160"/>
<polygon fill="#000000" stroke="#000000" points="838.2813,-156.5001 828.2813,-160 838.2812,-163.5001 838.2813,-156.5001"/>
</g>
<!-- LoadTitleSPService -->
<g id="node4" class="node">
<title>LoadTitleSPService</title>
<ellipse fill="#fdb462" stroke="#000000" cx="882" cy="-104" rx="88.6178" ry="18"/>
<text text-anchor="middle" x="882" y="-99.8" font-family="Times,serif" font-size="14.00" fill="#000000">LoadTitleSPService</text>
</g>
<!-- LoadTitleSPService&#45;&gt;CoreModule -->
<g id="edge4" class="edge">
<title>LoadTitleSPService&#45;&gt;CoreModule</title>
<path fill="none" stroke="#000000" d="M810.786,-115.0264C810.786,-115.0264 810.786,-140.7791 810.786,-140.7791"/>
<polygon fill="#000000" stroke="#000000" points="807.2861,-140.779 810.786,-150.7791 814.2861,-140.7791 807.2861,-140.779"/>
</g>
<!-- PermissionsService -->
<g id="node5" class="node">
<title>PermissionsService</title>
<ellipse fill="#fdb462" stroke="#000000" cx="689" cy="-104" rx="86.8301" ry="18"/>
<text text-anchor="middle" x="689" y="-99.8" font-family="Times,serif" font-size="14.00" fill="#000000">PermissionsService</text>
</g>
<!-- PermissionsService&#45;&gt;CoreModule -->
<g id="edge5" class="edge">
<title>PermissionsService&#45;&gt;CoreModule</title>
<path fill="none" stroke="#000000" d="M758.642,-114.7334C758.642,-114.7334 758.642,-140.8723 758.642,-140.8723"/>
<polygon fill="#000000" stroke="#000000" points="755.1421,-140.8722 758.642,-150.8723 762.1421,-140.8723 755.1421,-140.8722"/>
</g>
<!-- PlanningFolderService -->
<g id="node6" class="node">
<title>PlanningFolderService</title>
<ellipse fill="#fdb462" stroke="#000000" cx="485" cy="-104" rx="99.5771" ry="18"/>
<text text-anchor="middle" x="485" y="-99.8" font-family="Times,serif" font-size="14.00" fill="#000000">PlanningFolderService</text>
</g>
<!-- PlanningFolderService&#45;&gt;CoreModule -->
<g id="edge6" class="edge">
<title>PlanningFolderService&#45;&gt;CoreModule</title>
<path fill="none" stroke="#000000" d="M485,-122.027C485,-138.3976 485,-160 485,-160 485,-160 731.6978,-160 731.6978,-160"/>
<polygon fill="#000000" stroke="#000000" points="731.6979,-163.5001 741.6978,-160 731.6978,-156.5001 731.6979,-163.5001"/>
</g>
<!-- TableGenericService -->
<g id="node7" class="node">
<title>TableGenericService</title>
<ellipse fill="#fdb462" stroke="#000000" cx="275" cy="-104" rx="92.5707" ry="18"/>
<text text-anchor="middle" x="275" y="-99.8" font-family="Times,serif" font-size="14.00" fill="#000000">TableGenericService</text>
</g>
<!-- TableGenericService&#45;&gt;CoreModule -->
<g id="edge7" class="edge">
<title>TableGenericService&#45;&gt;CoreModule</title>
<path fill="none" stroke="#000000" d="M275,-122.1061C275,-141.3391 275,-169 275,-169 275,-169 731.5177,-169 731.5177,-169"/>
<polygon fill="#000000" stroke="#000000" points="731.5177,-172.5001 741.5177,-169 731.5177,-165.5001 731.5177,-172.5001"/>
</g>
<!-- TrackerService -->
<g id="node8" class="node">
<title>TrackerService</title>
<ellipse fill="#fdb462" stroke="#000000" cx="94" cy="-104" rx="70.0191" ry="18"/>
<text text-anchor="middle" x="94" y="-99.8" font-family="Times,serif" font-size="14.00" fill="#000000">TrackerService</text>
</g>
<!-- TrackerService&#45;&gt;CoreModule -->
<g id="edge8" class="edge">
<title>TrackerService&#45;&gt;CoreModule</title>
<path fill="none" stroke="#000000" d="M94,-122.2921C94,-144.2057 94,-178 94,-178 94,-178 731.5131,-178 731.5131,-178"/>
<polygon fill="#000000" stroke="#000000" points="731.5131,-181.5001 741.5131,-178 731.5131,-174.5001 731.5131,-181.5001"/>
</g>
</g>
</svg>
