<?xml version="1.0" encoding="UTF-8" standalone="no"?>
<!DOCTYPE svg PUBLIC "-//W3C//DTD SVG 1.1//EN"
 "http://www.w3.org/Graphics/SVG/1.1/DTD/svg11.dtd">
<!-- Generated by graphviz version 2.40.1 (20161225.0304)
 -->
<!-- Title: dependencies Pages: 1 -->
<svg width="617pt" height="211pt"
 viewBox="0.00 0.00 617.00 211.00" xmlns="http://www.w3.org/2000/svg" xmlns:xlink="http://www.w3.org/1999/xlink">
<g id="graph0" class="graph" transform="scale(1 1) rotate(0) translate(4 207)">
<title>dependencies</title>
<polygon fill="#ffffff" stroke="transparent" points="-4,4 -4,-207 613,-207 613,4 -4,4"/>
<text text-anchor="start" x="283.5091" y="-42.4" font-family="sans-serif" font-weight="bold" font-size="14.00" fill="#000000">Legend</text>
<polygon fill="#ffffb3" stroke="transparent" points="70.5,-10 70.5,-30 90.5,-30 90.5,-10 70.5,-10"/>
<text text-anchor="start" x="94.129" y="-15.4" font-family="sans-serif" font-size="14.00" fill="#000000"> &#160;Declarations</text>
<polygon fill="#8dd3c7" stroke="transparent" points="183.5,-10 183.5,-30 203.5,-30 203.5,-10 183.5,-10"/>
<text text-anchor="start" x="207.2251" y="-15.4" font-family="sans-serif" font-size="14.00" fill="#000000"> &#160;Module</text>
<polygon fill="#80b1d3" stroke="transparent" points="269.5,-10 269.5,-30 289.5,-30 289.5,-10 269.5,-10"/>
<text text-anchor="start" x="293.2812" y="-15.4" font-family="sans-serif" font-size="14.00" fill="#000000"> &#160;Bootstrap</text>
<polygon fill="#fdb462" stroke="transparent" points="366.5,-10 366.5,-30 386.5,-30 386.5,-10 366.5,-10"/>
<text text-anchor="start" x="390.1732" y="-15.4" font-family="sans-serif" font-size="14.00" fill="#000000"> &#160;Providers</text>
<polygon fill="#fb8072" stroke="transparent" points="462.5,-10 462.5,-30 482.5,-30 482.5,-10 462.5,-10"/>
<text text-anchor="start" x="486.2258" y="-15.4" font-family="sans-serif" font-size="14.00" fill="#000000"> &#160;Exports</text>
<g id="clust1" class="cluster">
<title>cluster_AppModule</title>
<polygon fill="none" stroke="#000000" stroke-dasharray="1,5" points="8,-70 8,-195 601,-195 601,-70 8,-70"/>
</g>
<g id="clust2" class="cluster">
<title>cluster_AppModule_declarations</title>
<polygon fill="none" stroke="#000000" points="471,-78 471,-130 593,-130 593,-78 471,-78"/>
</g>
<g id="clust4" class="cluster">
<title>cluster_AppModule_imports</title>
<polygon fill="none" stroke="#000000" points="234,-78 234,-130 463,-130 463,-78 234,-78"/>
</g>
<g id="clust7" class="cluster">
<title>cluster_AppModule_providers</title>
<polygon fill="none" stroke="#000000" points="16,-78 16,-130 226,-130 226,-78 16,-78"/>
</g>
<!-- AppComponent -->
<g id="node1" class="node">
<title>AppComponent</title>
<polygon fill="#ffffb3" stroke="#000000" points="584.9399,-122 479.0601,-122 479.0601,-86 584.9399,-86 584.9399,-122"/>
<text text-anchor="middle" x="532" y="-99.8" font-family="Times,serif" font-size="14.00" fill="#000000">AppComponent</text>
</g>
<!-- AppModule -->
<g id="node2" class="node">
<title>AppModule</title>
<polygon fill="#8dd3c7" stroke="#000000" points="395.6571,-187 392.6571,-191 371.6571,-191 368.6571,-187 312.3429,-187 312.3429,-151 395.6571,-151 395.6571,-187"/>
<text text-anchor="middle" x="354" y="-164.8" font-family="Times,serif" font-size="14.00" fill="#000000">AppModule</text>
</g>
<!-- AppComponent&#45;&gt;AppModule -->
<g id="edge1" class="edge">
<title>AppComponent&#45;&gt;AppModule</title>
<path fill="none" stroke="#000000" d="M532,-122.1061C532,-141.3391 532,-169 532,-169 532,-169 405.7331,-169 405.7331,-169"/>
<polygon fill="#000000" stroke="#000000" points="405.7331,-165.5001 395.7331,-169 405.7331,-172.5001 405.7331,-165.5001"/>
</g>
<!-- CoreModule -->
<g id="node3" class="node">
<title>CoreModule</title>
<polygon fill="#8dd3c7" stroke="#000000" points="455.2619,-122 452.2619,-126 431.2619,-126 428.2619,-122 368.7381,-122 368.7381,-86 455.2619,-86 455.2619,-122"/>
<text text-anchor="middle" x="412" y="-99.8" font-family="Times,serif" font-size="14.00" fill="#000000">CoreModule</text>
</g>
<!-- CoreModule&#45;&gt;AppModule -->
<g id="edge2" class="edge">
<title>CoreModule&#45;&gt;AppModule</title>
<path fill="none" stroke="#000000" d="M382.2237,-122.1061C382.2237,-122.1061 382.2237,-140.991 382.2237,-140.991"/>
<polygon fill="#000000" stroke="#000000" points="378.7238,-140.9909 382.2237,-150.991 385.7238,-140.991 378.7238,-140.9909"/>
</g>
<!-- TrackersModule -->
<g id="node4" class="node">
<title>TrackersModule</title>
<polygon fill="#8dd3c7" stroke="#000000" points="350.0131,-122 347.0131,-126 326.0131,-126 323.0131,-122 241.9869,-122 241.9869,-86 350.0131,-86 350.0131,-122"/>
<text text-anchor="middle" x="296" y="-99.8" font-family="Times,serif" font-size="14.00" fill="#000000">TrackersModule</text>
</g>
<!-- TrackersModule&#45;&gt;AppModule -->
<g id="edge3" class="edge">
<title>TrackersModule&#45;&gt;AppModule</title>
<path fill="none" stroke="#000000" d="M331.2139,-122.1061C331.2139,-122.1061 331.2139,-140.991 331.2139,-140.991"/>
<polygon fill="#000000" stroke="#000000" points="327.714,-140.9909 331.2139,-150.991 334.714,-140.991 327.714,-140.9909"/>
</g>
<!-- BackendRequestClass -->
<g id="node5" class="node">
<title>BackendRequestClass</title>
<ellipse fill="#fdb462" stroke="#000000" cx="121" cy="-104" rx="96.708" ry="18"/>
<text text-anchor="middle" x="121" y="-99.8" font-family="Times,serif" font-size="14.00" fill="#000000">BackendRequestClass</text>
</g>
<!-- BackendRequestClass&#45;&gt;AppModule -->
<g id="edge4" class="edge">
<title>BackendRequestClass&#45;&gt;AppModule</title>
<path fill="none" stroke="#000000" d="M121,-122.1061C121,-141.3391 121,-169 121,-169 121,-169 302.0752,-169 302.0752,-169"/>
<polygon fill="#000000" stroke="#000000" points="302.0752,-172.5001 312.0752,-169 302.0751,-165.5001 302.0752,-172.5001"/>
</g>
</g>
</svg>
