<?xml version="1.0" encoding="UTF-8" standalone="no"?>
<!DOCTYPE svg PUBLIC "-//W3C//DTD SVG 1.1//EN"
 "http://www.w3.org/Graphics/SVG/1.1/DTD/svg11.dtd">
<!-- Generated by graphviz version 2.40.1 (20161225.0304)
 -->
<!-- Title: dependencies Pages: 1 -->
<svg width="504pt" height="284pt"
 viewBox="0.00 0.00 504.00 284.00" xmlns="http://www.w3.org/2000/svg" xmlns:xlink="http://www.w3.org/1999/xlink">
<g id="graph0" class="graph" transform="scale(1 1) rotate(0) translate(4 280)">
<title>dependencies</title>
<polygon fill="#ffffff" stroke="transparent" points="-4,4 -4,-280 500,-280 500,4 -4,4"/>
<text text-anchor="start" x="227.0091" y="-42.4" font-family="sans-serif" font-weight="bold" font-size="14.00" fill="#000000">Legend</text>
<polygon fill="#ffffb3" stroke="transparent" points="14,-10 14,-30 34,-30 34,-10 14,-10"/>
<text text-anchor="start" x="37.629" y="-15.4" font-family="sans-serif" font-size="14.00" fill="#000000"> &#160;Declarations</text>
<polygon fill="#8dd3c7" stroke="transparent" points="127,-10 127,-30 147,-30 147,-10 127,-10"/>
<text text-anchor="start" x="150.7251" y="-15.4" font-family="sans-serif" font-size="14.00" fill="#000000"> &#160;Module</text>
<polygon fill="#80b1d3" stroke="transparent" points="213,-10 213,-30 233,-30 233,-10 213,-10"/>
<text text-anchor="start" x="236.7812" y="-15.4" font-family="sans-serif" font-size="14.00" fill="#000000"> &#160;Bootstrap</text>
<polygon fill="#fdb462" stroke="transparent" points="310,-10 310,-30 330,-30 330,-10 310,-10"/>
<text text-anchor="start" x="333.6732" y="-15.4" font-family="sans-serif" font-size="14.00" fill="#000000"> &#160;Providers</text>
<polygon fill="#fb8072" stroke="transparent" points="406,-10 406,-30 426,-30 426,-10 406,-10"/>
<text text-anchor="start" x="429.7258" y="-15.4" font-family="sans-serif" font-size="14.00" fill="#000000"> &#160;Exports</text>
<g id="clust1" class="cluster">
<title>cluster_TrackersModule</title>
<polygon fill="none" stroke="#000000" stroke-dasharray="1,5" points="68,-70 68,-268 428,-268 428,-70 68,-70"/>
</g>
<g id="clust2" class="cluster">
<title>cluster_TrackersModule_declarations</title>
<polygon fill="none" stroke="#000000" points="198,-78 198,-130 420,-130 420,-78 198,-78"/>
</g>
<g id="clust4" class="cluster">
<title>cluster_TrackersModule_imports</title>
<polygon fill="none" stroke="#000000" points="76,-78 76,-130 190,-130 190,-78 76,-78"/>
</g>
<g id="clust5" class="cluster">
<title>cluster_TrackersModule_exports</title>
<polygon fill="none" stroke="#000000" points="135,-208 135,-260 361,-260 361,-208 135,-208"/>
</g>
<!-- SummaryListTrackersComponent -->
<g id="node1" class="node">
<title>SummaryListTrackersComponent</title>
<polygon fill="#ffffb3" stroke="#000000" points="412.0126,-122 205.9874,-122 205.9874,-86 412.0126,-86 412.0126,-122"/>
<text text-anchor="middle" x="309" y="-99.8" font-family="Times,serif" font-size="14.00" fill="#000000">SummaryListTrackersComponent</text>
</g>
<!-- TrackersModule -->
<g id="node2" class="node">
<title>TrackersModule</title>
<polygon fill="#8dd3c7" stroke="#000000" points="302.0131,-187 299.0131,-191 278.0131,-191 275.0131,-187 193.9869,-187 193.9869,-151 302.0131,-151 302.0131,-187"/>
<text text-anchor="middle" x="248" y="-164.8" font-family="Times,serif" font-size="14.00" fill="#000000">TrackersModule</text>
</g>
<!-- SummaryListTrackersComponent&#45;&gt;TrackersModule -->
<g id="edge1" class="edge">
<title>SummaryListTrackersComponent&#45;&gt;TrackersModule</title>
<path fill="none" stroke="#000000" d="M254,-122.1061C254,-122.1061 254,-140.991 254,-140.991"/>
<polygon fill="#000000" stroke="#000000" points="250.5001,-140.9909 254,-150.991 257.5001,-140.991 250.5001,-140.9909"/>
</g>
<!-- SummaryListTrackersComponent  -->
<g id="node4" class="node">
<title>SummaryListTrackersComponent </title>
<polygon fill="#fb8072" stroke="#000000" points="353.012,-252 142.988,-252 142.988,-216 353.012,-216 353.012,-252"/>
<text text-anchor="middle" x="248" y="-229.8" font-family="Times,serif" font-size="14.00" fill="#000000">SummaryListTrackersComponent </text>
</g>
<!-- TrackersModule&#45;&gt;SummaryListTrackersComponent  -->
<g id="edge3" class="edge">
<title>TrackersModule&#45;&gt;SummaryListTrackersComponent </title>
<path fill="none" stroke="#000000" stroke-dasharray="5,2" d="M248,-187.1061C248,-187.1061 248,-205.991 248,-205.991"/>
<polygon fill="#000000" stroke="#000000" points="244.5001,-205.9909 248,-215.991 251.5001,-205.991 244.5001,-205.9909"/>
</g>
<!-- SharedModule -->
<g id="node3" class="node">
<title>SharedModule</title>
<polygon fill="#8dd3c7" stroke="#000000" points="182.4231,-122 179.4231,-126 158.4231,-126 155.4231,-122 83.5769,-122 83.5769,-86 182.4231,-86 182.4231,-122"/>
<text text-anchor="middle" x="133" y="-99.8" font-family="Times,serif" font-size="14.00" fill="#000000">SharedModule</text>
</g>
<!-- SharedModule&#45;&gt;TrackersModule -->
<g id="edge2" class="edge">
<title>SharedModule&#45;&gt;TrackersModule</title>
<path fill="none" stroke="#000000" d="M182.5558,-104C192.3858,-104 199.744,-104 199.744,-104 199.744,-104 199.744,-140.8939 199.744,-140.8939"/>
<polygon fill="#000000" stroke="#000000" points="196.2441,-140.8938 199.744,-150.8939 203.2441,-140.8939 196.2441,-140.8938"/>
</g>
</g>
</svg>
