<?xml version="1.0" encoding="UTF-8" standalone="no"?>
<!DOCTYPE svg PUBLIC "-//W3C//DTD SVG 1.1//EN"
 "http://www.w3.org/Graphics/SVG/1.1/DTD/svg11.dtd">
<!-- Generated by graphviz version 2.40.1 (20161225.0304)
 -->
<!-- Title: dependencies Pages: 1 -->
<svg width="504pt" height="219pt"
 viewBox="0.00 0.00 504.00 219.00" xmlns="http://www.w3.org/2000/svg" xmlns:xlink="http://www.w3.org/1999/xlink">
<g id="graph0" class="graph" transform="scale(1 1) rotate(0) translate(4 215)">
<title>dependencies</title>
<polygon fill="#ffffff" stroke="transparent" points="-4,4 -4,-215 500,-215 500,4 -4,4"/>
<text text-anchor="start" x="227.0091" y="-42.4" font-family="sans-serif" font-weight="bold" font-size="14.00" fill="#000000">Legend</text>
<polygon fill="#ffffb3" stroke="transparent" points="14,-10 14,-30 34,-30 34,-10 14,-10"/>
<text text-anchor="start" x="37.629" y="-15.4" font-family="sans-serif" font-size="14.00" fill="#000000"> &#160;Declarations</text>
<polygon fill="#8dd3c7" stroke="transparent" points="127,-10 127,-30 147,-30 147,-10 127,-10"/>
<text text-anchor="start" x="150.7251" y="-15.4" font-family="sans-serif" font-size="14.00" fill="#000000"> &#160;Module</text>
<polygon fill="#80b1d3" stroke="transparent" points="213,-10 213,-30 233,-30 233,-10 213,-10"/>
<text text-anchor="start" x="236.7812" y="-15.4" font-family="sans-serif" font-size="14.00" fill="#000000"> &#160;Bootstrap</text>
<polygon fill="#fdb462" stroke="transparent" points="310,-10 310,-30 330,-30 330,-10 310,-10"/>
<text text-anchor="start" x="333.6732" y="-15.4" font-family="sans-serif" font-size="14.00" fill="#000000"> &#160;Providers</text>
<polygon fill="#fb8072" stroke="transparent" points="406,-10 406,-30 426,-30 426,-10 406,-10"/>
<text text-anchor="start" x="429.7258" y="-15.4" font-family="sans-serif" font-size="14.00" fill="#000000"> &#160;Exports</text>
<g id="clust1" class="cluster">
<title>cluster_AppComponent</title>
<polygon fill="none" stroke="#000000" stroke-dasharray="1,5" points="170,-70 170,-203 326,-203 326,-70 170,-70"/>
</g>
<g id="clust2" class="cluster">
<title>cluster_AppComponent_declarations</title>
<polygon fill="none" stroke="#000000" points="178,-78 178,-130 318,-130 318,-78 178,-78"/>
</g>
<g id="clust6" class="cluster">
<title>cluster_AppComponent_bootstrap</title>
<polygon fill="none" stroke="#000000" points="178,-143 178,-195 302,-195 302,-143 178,-143"/>
</g>
<!-- AppComponent -->
<g id="node1" class="node">
<title>AppComponent</title>
<polygon fill="#ffffb3" stroke="#000000" points="291.9399,-122 186.0601,-122 186.0601,-86 291.9399,-86 291.9399,-122"/>
<text text-anchor="middle" x="239" y="-99.8" font-family="Times,serif" font-size="14.00" fill="#000000">AppComponent</text>
</g>
<!-- AppComponent&#45;&gt;AppComponent -->
<g id="edge1" class="edge">
<title>AppComponent&#45;&gt;AppComponent</title>
<path fill="none" stroke="#000000" d="M239,-85.5782C239,-76.7209 239,-68 239,-68 239,-68 167.5305,-68 167.5305,-68 167.5305,-68 167.5305,-137 167.5305,-137 167.5305,-137 221.4268,-137 221.4268,-137 221.4268,-137 221.4268,-132.0449 221.4268,-132.0449"/>
<polygon fill="#000000" stroke="#000000" points="224.9269,-132.0448 221.4268,-122.0449 217.9269,-132.0449 224.9269,-132.0448"/>
</g>
<!-- AppComponent  -->
<g id="node2" class="node">
<title>AppComponent </title>
<polygon fill="#80b1d3" stroke="#000000" points="294.439,-187 185.561,-187 185.561,-151 294.439,-151 294.439,-187"/>
<text text-anchor="middle" x="240" y="-164.8" font-family="Times,serif" font-size="14.00" fill="#000000">AppComponent </text>
</g>
<!-- AppComponent&#45;&gt;AppComponent  -->
<g id="edge2" class="edge">
<title>AppComponent&#45;&gt;AppComponent </title>
<path fill="none" stroke="#000000" stroke-dasharray="1,5" d="M256.5732,-122.1061C256.5732,-122.1061 256.5732,-140.991 256.5732,-140.991"/>
<polygon fill="#000000" stroke="#000000" points="253.0733,-140.9909 256.5732,-150.991 260.0733,-140.991 253.0733,-140.9909"/>
</g>
</g>
</svg>
